<svg width="20" height="20" viewBox="0 0 20 20" fill="none" xmlns="http://www.w3.org/2000/svg">
  <path d="M19.6 10.2273C19.6 9.51818 19.5364 8.84091 19.4182 8.19091H10V12.0455H15.3818C15.15 13.2955 14.4455 14.3545 13.3864 15.0636V17.5636H16.6182C18.5091 15.8227 19.6 13.2636 19.6 10.2273Z" fill="#4285F4"/>
  <path d="M10 20C12.7 20 14.9636 19.1045 16.6182 17.5636L13.3864 15.0636C12.4909 15.6636 11.3455 16.0227 10 16.0227C7.39091 16.0227 5.18182 14.2682 4.39091 11.9091H1.05V14.5C2.7 17.7727 6.08182 20 10 20Z" fill="#34A853"/>
  <path d="M4.39091 11.9091C4.19091 11.3091 4.07727 10.6682 4.07727 10C4.07727 9.33182 4.19091 8.69091 4.39091 8.09091V5.5H1.05C0.381818 6.85455 0 8.38182 0 10C0 11.6182 0.381818 13.1455 1.05 14.5L4.39091 11.9091Z" fill="#FBBC05"/>
  <path d="M10 3.97727C11.4727 3.97727 12.7955 4.48182 13.8364 5.47727L16.6909 2.62273C14.9591 1.00455 12.6955 0 10 0C6.08182 0 2.7 2.22727 1.05 5.5L4.39091 8.09091C5.18182 5.73182 7.39091 3.97727 10 3.97727Z" fill="#EA4335"/>
</svg>
